<svg xmlns="http://www.w3.org/2000/svg" viewBox="0 0 490.69 471.05"><defs><style>.cls-1,.cls-3{fill:#333340;}.cls-2,.cls-8{fill:none;}.cls-2,.cls-3{stroke:#5f5d6b;}.cls-2,.cls-3,.cls-6,.cls-8{stroke-miterlimit:10;}.cls-4{fill:#5e5966;}.cls-5{fill:#3e3d4d;}.cls-6,.cls-7{fill:#6f9;}.cls-6,.cls-8{stroke:#3e3d4d;}</style></defs><title>Asset 1</title><g id="Layer_2" data-name="Layer 2"><g id="Light_Bottle" data-name="Light Bottle"><g id="Layer_1-2" data-name="Layer 1"><g id="Body"><path class="cls-1" d="M435.38,142.07c18.08,3.19,39.06,11,46.64,17.35s10.39,26.19,6.27,44.07c0,0-15.1,65.55-86.18,150.26s-133,111-133,111c-16.9,7.17-36.92,7.83-44.49,1.48s-18.91-25.67-25.18-42.92L127.62,226c-6.28-17.25-22.92-41-37-52.81L26.46,119.32a33.47,33.47,0,0,1-4.11-47L59,28.63a33.46,33.46,0,0,1,47-4.11l64.18,53.85c14.06,11.79,40.35,24,58.42,27.24Z"/><path class="cls-2" d="M435.38,142.07c18.08,3.19,39.06,11,46.64,17.35s10.39,26.19,6.27,44.07c0,0-15.1,65.55-86.18,150.26s-133,111-133,111c-16.9,7.17-36.92,7.83-44.49,1.48s-18.91-25.67-25.18-42.92L127.62,226c-6.28-17.25-22.92-41-37-52.81L26.46,119.32a33.47,33.47,0,0,1-4.11-47L59,28.63a33.46,33.46,0,0,1,47-4.11l64.18,53.85c14.06,11.79,40.35,24,58.42,27.24Z"/></g><g id="Cap"><ellipse class="cls-3" cx="54.09" cy="61.72" rx="76.36" ry="28.03" transform="translate(-27.96 63.48) rotate(-50)"/><ellipse class="cls-4" cx="49.5" cy="58.03" rx="48.55" ry="9.24" transform="translate(-26.77 58.64) rotate(-50)"/><ellipse class="cls-5" cx="49.5" cy="55.89" rx="49.61" ry="8.99" transform="translate(-25.14 57.88) rotate(-50)"/></g></g><g id="Layer_2-2" data-name="Layer 2"><g id="Fluid"><path class="cls-6" d="M147.05,232.59s23.35,56.89,42.73,112.74c13.43,38.71,37.36,77.19,54.7,82.76,5.19,1.67,15,4,31.22-4,90.33-44.49,171.72-156,182.61-218.18,0,0-16.59-15.92-28.29-.28,0,0-85,95-127.08,27-24.4-48.3-61.85-58.91-71.64-23.93-17.57,62.77-84.25,23.91-84.25,23.91"/></g><g id="bubbles"><path class="cls-7" d="M212,187.9c0,13.67-8,24.76-17.91,24.76s-17.91-11.09-17.91-24.76v-2.08c.3-2.17-.84-5.73-2.52-7.91a11.82,11.82,0,0,1-1.95-6.81c0-8,6.77-14.5,15.13-14.5,6,0,10.17,4.48,10.17,4.48,1.89,2,5,5.32,6.81,7.34C203.79,168.42,212,177.31,212,187.9Z"/><path class="cls-8" d="M212,187.9c0,13.67-8,24.76-17.91,24.76s-17.91-11.09-17.91-24.76v-2.08c.3-2.17-.84-5.73-2.52-7.91a11.82,11.82,0,0,1-1.95-6.81c0-8,6.77-14.5,15.13-14.5,6,0,10.17,4.48,10.17,4.48,1.89,2,5,5.32,6.81,7.34C203.79,168.42,212,177.31,212,187.9Z"/><ellipse class="cls-6" cx="144.49" cy="153.37" rx="10.42" ry="9.42"/></g></g></g></g></svg>